# File created by Blade
# Date/Time:  Fri Jan 16 19:32:17 2015
# Frame Rate: 120.000 fps
#------------------------------------------------------
:FULLY-SPECIFIED
:DEGREES
780
root 19.922955 35.479786 -20.468296 9.532095 9.833035 -0.146108
Spine -21.508707 -9.734774 -1.938604
Head 18.237081 -3.797438 7.040647
LeftShoulder -6.847851 7.545191 -0.122250
LeftArm -99.040965 49.920832 -169.595385
LeftForeArm 67.017597 -0.000000 116.466072
LeftHand 15.905057 0.000000 -9.134741
LeftHandThumb1 -26.253704 0.000000 33.147579
RightShoulder -11.516255 6.033792 -25.467049
RightArm -353.750017 49.639916 -363.160754
RightForeArm -33.402563 -0.000000 6.088872
RightHand -2.791870 -0.000000 -4.630515
RightHandThumb1 -24.326973 -0.000000 -32.862282
LeftUpLeg -1.002755 0.626863 0.876914
LeftLeg -6.692049 -0.000000 0.000000
LeftFoot -19.986037 27.735191 -12.608357
LeftToeBase 25.758647 -0.000000 -0.000000
RightUpLeg 0.889881 -16.046732 -1.536569
RightLeg -4.107522 -0.000000 0.000000
RightFoot -22.512853 -24.457278 20.011630
RightToeBase 24.264024 -0.000000 -0.000000
781
root 19.925105 35.479720 -20.475872 9.550058 9.850099 -0.141138
Spine -21.526254 -9.772922 -1.898596
Head 18.261735 -3.770230 6.991930
LeftShoulder -6.862702 7.599501 -0.125762
LeftArm -99.094927 49.955113 -169.605827
LeftForeArm 66.963951 0.000000 116.397059
LeftHand 15.891501 -0.000000 -9.219281
LeftHandThumb1 -26.253704 0.000000 33.147579
RightShoulder -11.507702 5.909873 -25.364130
RightArm -353.957428 49.455752 -362.988894
RightForeArm -33.271358 0.000000 5.901046
RightHand -2.884459 0.000000 -4.583776
RightHandThumb1 -24.326973 -0.000000 -32.862282
LeftUpLeg -1.039181 0.646806 0.865377
LeftLeg -6.684779 -0.000000 0.000000
LeftFoot -19.964706 27.715730 -12.561571
LeftToeBase 25.781140 -0.000000 -0.000000
RightUpLeg 0.867853 -16.058438 -1.537171
RightLeg -4.117348 -0.000000 0.000000
RightFoot -22.497055 -24.470701 19.980576
RightToeBase 24.284185 -0.000000 -0.000000
782
root 19.922967 35.479822 -20.486220 9.591297 9.886891 -0.146666
Spine -21.568489 -9.820374 -1.851588
Head 18.293712 -3.747437 6.956443
LeftShoulder -6.832832 7.595238 -0.123093
LeftArm -99.152288 49.893402 -169.621376
LeftForeArm 67.014472 -0.000000 116.353189
LeftHand 15.811620 -0.000000 -9.482156
LeftHandThumb1 -26.253704 0.000000 33.147579
RightShoulder -11.524902 5.721036 -25.186584
RightArm -354.134694 49.625188 -362.820483
RightForeArm -33.348714 -0.000000 5.806922
RightHand -2.786604 -0.000000 -4.125270
RightHandThumb1 -24.326973 -0.000000 -32.862282
LeftUpLeg -1.116512 0.642501 0.874847
LeftLeg -6.656944 -0.000000 0.000000
LeftFoot -19.953551 27.691812 -12.525640
LeftToeBase 25.822469 -0.000000 -0.000000
RightUpLeg 0.812174 -16.071288 -1.508336
RightLeg -4.118866 -0.000000 0.000000
RightFoot -22.507641 -24.507595 19.996759
RightToeBase 24.281895 -0.000000 -0.000000
783
root 19.924864 35.479822 -20.493052 9.599761 9.910491 -0.138425
Spine -21.578406 -9.848105 -1.820963
Head 18.335700 -3.715741 6.927021
LeftShoulder -6.814457 7.618592 -0.122682
LeftArm -99.225056 49.877147 -169.658494
LeftForeArm 67.103260 -0.000000 116.343788
LeftHand 15.786033 -0.000000 -9.881294
LeftHandThumb1 -26.253704 0.000000 33.147579
RightShoulder -11.542661 5.648565 -25.055912
RightArm -354.296590 49.528100 -362.639748
RightForeArm -33.267953 -0.000000 5.663805
RightHand -2.760933 -0.000000 -3.984337
RightHandThumb1 -24.326973 -0.000000 -32.862282
LeftUpLeg -1.144738 0.657677 0.861394
LeftLeg -6.646259 -0.000000 0.000000
LeftFoot -19.941563 27.658718 -12.508428
LeftToeBase 25.794542 -0.000000 -0.000000
RightUpLeg 0.808330 -16.084930 -1.516602
RightLeg -4.137119 -0.000000 0.000000
RightFoot -22.497312 -24.514192 19.971472
RightToeBase 24.304038 -0.000000 -0.000000
784
root 19.925957 35.479840 -20.500058 9.606047 9.929069 -0.132596
Spine -21.579792 -9.879646 -1.795397
Head 18.354231 -3.694243 6.892394
LeftShoulder -6.804661 7.646444 -0.131297
LeftArm -99.254734 49.861163 -169.594460
LeftForeArm 67.233390 -0.000000 116.362350
LeftHand 15.742222 -0.000000 -10.054859
LeftHandThumb1 -26.253704 0.000000 33.147579
RightShoulder -11.560187 5.498830 -24.912445
RightArm -354.458799 49.523672 -362.428548
RightForeArm -33.194712 -0.000000 5.548619
RightHand -2.844267 -0.000000 -3.830893
RightHandThumb1 -24.326973 -0.000000 -32.862282
LeftUpLeg -1.168837 0.669868 0.852586
LeftLeg -6.638936 -0.000000 0.000000
LeftFoot -19.930757 27.628751 -12.484932
LeftToeBase 25.850371 -0.000000 -0.000000
RightUpLeg 0.800660 -16.092510 -1.519546
RightLeg -4.145949 -0.000000 0.000000
RightFoot -22.498234 -24.509988 20.000051
RightToeBase 24.245464 -0.000000 -0.000000
785
root 19.928373 35.479933 -20.506274 9.605945 9.949268 -0.124753
Spine -21.582629 -9.907904 -1.762529
Head 18.406186 -3.665563 6.856644
LeftShoulder -6.775765 7.666823 -0.127109
LeftArm -99.302273 49.826145 -169.628830
LeftForeArm 67.273781 -0.000000 116.319119
LeftHand 15.687480 -0.000000 -10.321242
LeftHandThumb1 -26.253704 0.000000 33.147579
RightShoulder -11.562007 5.353384 -24.790190
RightArm -354.650468 49.529440 -362.244447
RightForeArm -33.055934 -0.000000 5.404753
RightHand -2.749578 0.000000 -3.494635
RightHandThumb1 -24.326973 -0.000000 -32.862282
LeftUpLeg -1.180969 0.671516 0.841740
LeftLeg -6.636771 -0.000000 0.000000
LeftFoot -19.915611 27.615395 -12.460575
LeftToeBase 25.827222 -0.000000 -0.000000
RightUpLeg 0.798251 -16.109577 -1.528199
RightLeg -4.152171 -0.000000 0.000000
RightFoot -22.491588 -24.519709 19.983699
RightToeBase 24.317811 -0.000000 -0.000000
